<svg width="177" height="36" viewBox="0 0 177 36" fill="none" xmlns="http://www.w3.org/2000/svg">
<path d="M34.65 27V9.5H37.95V16.45H38.4L44.075 9.5H48.3L41 18.125L48.55 27H44.2L38.4 19.9H37.95V27H34.65ZM55.4332 27.35C54.1999 27.35 53.0915 27.1 52.1082 26.6C51.1249 26.1 50.3499 25.375 49.7832 24.425C49.2165 23.475 48.9332 22.3333 48.9332 21V20.6C48.9332 19.2667 49.2165 18.125 49.7832 17.175C50.3499 16.225 51.1249 15.5 52.1082 15C53.0915 14.5 54.1999 14.25 55.4332 14.25C56.6665 14.25 57.7749 14.5 58.7582 15C59.7415 15.5 60.5165 16.225 61.0832 17.175C61.6499 18.125 61.9332 19.2667 61.9332 20.6V21C61.9332 22.3333 61.6499 23.475 61.0832 24.425C60.5165 25.375 59.7415 26.1 58.7582 26.6C57.7749 27.1 56.6665 27.35 55.4332 27.35ZM55.4332 24.55C56.3999 24.55 57.1999 24.2417 57.8332 23.625C58.4665 22.9917 58.7832 22.0917 58.7832 20.925V20.675C58.7832 19.5083 58.4665 18.6167 57.8332 18C57.2165 17.3667 56.4165 17.05 55.4332 17.05C54.4665 17.05 53.6665 17.3667 53.0332 18C52.3999 18.6167 52.0832 19.5083 52.0832 20.675V20.925C52.0832 22.0917 52.3999 22.9917 53.0332 23.625C53.6665 24.2417 54.4665 24.55 55.4332 24.55ZM64.3408 27V14.6H67.4408V16.225H67.8908C68.0908 15.7917 68.4658 15.3833 69.0158 15C69.5658 14.6 70.3992 14.4 71.5158 14.4C72.4825 14.4 73.3242 14.625 74.0408 15.075C74.7742 15.5083 75.3408 16.1167 75.7408 16.9C76.1408 17.6667 76.3408 18.5667 76.3408 19.6V27H73.1908V19.85C73.1908 18.9167 72.9575 18.2167 72.4908 17.75C72.0408 17.2833 71.3908 17.05 70.5408 17.05C69.5742 17.05 68.8242 17.375 68.2908 18.025C67.7575 18.6583 67.4908 19.55 67.4908 20.7V27H64.3408ZM84.3961 27.35C82.7794 27.35 81.4544 27 80.4211 26.3C79.3878 25.6 78.7628 24.6 78.5461 23.3L81.4461 22.55C81.5628 23.1333 81.7544 23.5917 82.0211 23.925C82.3044 24.2583 82.6461 24.5 83.0461 24.65C83.4628 24.7833 83.9128 24.85 84.3961 24.85C85.1294 24.85 85.6711 24.725 86.0211 24.475C86.3711 24.2083 86.5461 23.8833 86.5461 23.5C86.5461 23.1167 86.3794 22.825 86.0461 22.625C85.7128 22.4083 85.1794 22.2333 84.4461 22.1L83.7461 21.975C82.8794 21.8083 82.0878 21.5833 81.3711 21.3C80.6544 21 80.0794 20.5917 79.6461 20.075C79.2128 19.5583 78.9961 18.8917 78.9961 18.075C78.9961 16.8417 79.4461 15.9 80.3461 15.25C81.2461 14.5833 82.4294 14.25 83.8961 14.25C85.2794 14.25 86.4294 14.5583 87.3461 15.175C88.2628 15.7917 88.8628 16.6 89.1461 17.6L86.2211 18.5C86.0878 17.8667 85.8128 17.4167 85.3961 17.15C84.9961 16.8833 84.4961 16.75 83.8961 16.75C83.2961 16.75 82.8378 16.8583 82.5211 17.075C82.2044 17.275 82.0461 17.5583 82.0461 17.925C82.0461 18.325 82.2128 18.625 82.5461 18.825C82.8794 19.0083 83.3294 19.15 83.8961 19.25L84.5961 19.375C85.5294 19.5417 86.3711 19.7667 87.1211 20.05C87.8878 20.3167 88.4878 20.7083 88.9211 21.225C89.3711 21.725 89.5961 22.4083 89.5961 23.275C89.5961 24.575 89.1211 25.5833 88.1711 26.3C87.2378 27 85.9794 27.35 84.3961 27.35ZM96.3623 27C95.5456 27 94.879 26.75 94.3623 26.25C93.8623 25.7333 93.6123 25.05 93.6123 24.2V17.2H90.5123V14.6H93.6123V10.75H96.7623V14.6H100.162V17.2H96.7623V23.65C96.7623 24.15 96.9956 24.4 97.4623 24.4H99.8623V27H96.3623ZM102.514 27V14.6H105.614V16H106.064C106.247 15.5 106.547 15.1333 106.964 14.9C107.397 14.6667 107.897 14.55 108.464 14.55H109.964V17.35H108.414C107.614 17.35 106.955 17.5667 106.439 18C105.922 18.4167 105.664 19.0667 105.664 19.95V27H102.514ZM116.651 27.2C115.684 27.2 114.834 26.9833 114.101 26.55C113.384 26.1 112.826 25.4833 112.426 24.7C112.026 23.9167 111.826 23.0167 111.826 22V14.6H114.976V21.75C114.976 22.6833 115.201 23.3833 115.651 23.85C116.117 24.3167 116.776 24.55 117.626 24.55C118.592 24.55 119.342 24.2333 119.876 23.6C120.409 22.95 120.676 22.05 120.676 20.9V14.6H123.826V27H120.726V25.375H120.276C120.076 25.7917 119.701 26.2 119.151 26.6C118.601 27 117.767 27.2 116.651 27.2ZM132.656 27.35C131.456 27.35 130.364 27.1 129.381 26.6C128.414 26.1 127.648 25.375 127.081 24.425C126.514 23.475 126.231 22.325 126.231 20.975V20.625C126.231 19.275 126.514 18.125 127.081 17.175C127.648 16.225 128.414 15.5 129.381 15C130.364 14.5 131.456 14.25 132.656 14.25C133.839 14.25 134.856 14.4583 135.706 14.875C136.556 15.2917 137.239 15.8667 137.756 16.6C138.289 17.3167 138.639 18.1333 138.806 19.05L135.756 19.7C135.689 19.2 135.539 18.75 135.306 18.35C135.073 17.95 134.739 17.6333 134.306 17.4C133.889 17.1667 133.364 17.05 132.731 17.05C132.098 17.05 131.523 17.1917 131.006 17.475C130.506 17.7417 130.106 18.15 129.806 18.7C129.523 19.2333 129.381 19.8917 129.381 20.675V20.925C129.381 21.7083 129.523 22.375 129.806 22.925C130.106 23.4583 130.506 23.8667 131.006 24.15C131.523 24.4167 132.098 24.55 132.731 24.55C133.681 24.55 134.398 24.3083 134.881 23.825C135.381 23.325 135.698 22.675 135.831 21.875L138.881 22.6C138.664 23.4833 138.289 24.2917 137.756 25.025C137.239 25.7417 136.556 26.3083 135.706 26.725C134.856 27.1417 133.839 27.35 132.656 27.35ZM145.314 27C144.498 27 143.831 26.75 143.314 26.25C142.814 25.7333 142.564 25.05 142.564 24.2V17.2H139.464V14.6H142.564V10.75H145.714V14.6H149.114V17.2H145.714V23.65C145.714 24.15 145.948 24.4 146.414 24.4H148.814V27H145.314ZM156.926 27.35C155.693 27.35 154.585 27.1 153.601 26.6C152.618 26.1 151.843 25.375 151.276 24.425C150.71 23.475 150.426 22.3333 150.426 21V20.6C150.426 19.2667 150.71 18.125 151.276 17.175C151.843 16.225 152.618 15.5 153.601 15C154.585 14.5 155.693 14.25 156.926 14.25C158.16 14.25 159.268 14.5 160.251 15C161.235 15.5 162.01 16.225 162.576 17.175C163.143 18.125 163.426 19.2667 163.426 20.6V21C163.426 22.3333 163.143 23.475 162.576 24.425C162.01 25.375 161.235 26.1 160.251 26.6C159.268 27.1 158.16 27.35 156.926 27.35ZM156.926 24.55C157.893 24.55 158.693 24.2417 159.326 23.625C159.96 22.9917 160.276 22.0917 160.276 20.925V20.675C160.276 19.5083 159.96 18.6167 159.326 18C158.71 17.3667 157.91 17.05 156.926 17.05C155.96 17.05 155.16 17.3667 154.526 18C153.893 18.6167 153.576 19.5083 153.576 20.675V20.925C153.576 22.0917 153.893 22.9917 154.526 23.625C155.16 24.2417 155.96 24.55 156.926 24.55ZM165.834 27V14.6H168.934V16H169.384C169.567 15.5 169.867 15.1333 170.284 14.9C170.717 14.6667 171.217 14.55 171.784 14.55H173.284V17.35H171.734C170.934 17.35 170.276 17.5667 169.759 18C169.242 18.4167 168.984 19.0667 168.984 19.95V27H165.834Z" fill="#16232B"/>
<path d="M23.2259 27.2025V33.0675L18.7665 36H10.591L0 28.556V11.8634L10.2194 4.64502V26.3002L6.50325 23.8189V12.5402L3.71614 14.5703V25.3979L11.52 31.2629H17.8375L23.2259 27.2025Z" fill="#FF5E14"/>
<path d="M12.7742 27.8711V3.12156L16.6935 0.445937V23.3411H19.3065V0H23.2258V23.6347L17.0668 27.8711H12.7742Z" fill="#FF5E14"/>
</svg>
